<?xml version="1.0" standalone="no"?>
<!DOCTYPE svg PUBLIC "-//W3C//DTD SVG 20010904//EN"
 "http://www.w3.org/TR/2001/REC-SVG-20010904/DTD/svg10.dtd">
<svg version="1.0" xmlns="http://www.w3.org/2000/svg"
 width="260.000000pt" height="260.000000pt" viewBox="0 0 260.000000 260.000000"
 preserveAspectRatio="xMidYMid meet">
<metadata>
Created by potrace 1.11, written by Peter Selinger 2001-2013
</metadata>
<g transform="translate(0.000000,260.000000) scale(0.100000,-0.100000)"
fill="#000000" stroke="none">
<path d="M1172 2579 c-101 -12 -133 -18 -212 -40 -354 -96 -647 -338 -811
-668 -142 -287 -172 -623 -83 -930 127 -439 479 -776 930 -890 144 -36 362
-46 496 -22 35 6 77 13 93 16 87 16 277 93 385 156 175 103 371 312 462 492
110 217 152 386 152 607 0 75 -11 210 -19 233 -3 7 -7 26 -10 42 -13 68 -18
83 -51 171 -86 230 -224 418 -420 574 -142 113 -374 216 -554 244 -19 3 -48 8
-64 11 -47 9 -227 11 -294 4z"/>
</g>
</svg>
