<svg id="Layer_5" data-name="Layer 5" xmlns="http://www.w3.org/2000/svg" viewBox="0 0 182.31 119.41"><defs><style>.cls-1{fill:#fff;}</style></defs><title>icon_260x260</title><path class="cls-1" d="M221.08,133.46c-4.16-3.63-10.64-.6-11.14-.55s-3.15,2.47-4.44,2.84-7.46,4.92-8.12,5.21-3.5,2.54-4.67,3.12-5,3.54-6.13,4.25-4.58,4-5.08,4.17-7.75,8.42-9.25,9-10.71,9.75-10.71,9.75.34-.25-.92-5.91-6.83-11.3-10.45-13.13-5.46-3.25-6-4-8.79-5.5-10.71-5.71-2.79.38-5.92,1.09-7.66,4.66-8.54,4.79-1.12-.67-3.16-3.17-8.26-7.5-9.5-8.37-6.71-2.84-10.71-3.8a34.45,34.45,0,0,0-8.59-.68s-2.64.33-2.46-.28,1.29-1.85.94-8.32c-.43-8.1-12-19.21-12-19.21-.32-.21-5.34-2.2-5.76-2.41a12.83,12.83,0,0,1-3.35-2.72c-1.68-1.78-5.76-2.72-5.86-3.35S65.25,92,66,91.65s8.9-4.92,9.53-5.45a38.09,38.09,0,0,1,6.28-3.14c2.2-.83,7.43-4.29,8.48-4.81s11.09-3.77,13.4-4.29,4.81,2,6.38,1.67,4,.94,4.71.32.11-2.83-1.67-3.77-8.48-1.26-11.31-1-12.35,4-14.13,4.93a10.05,10.05,0,0,0-2.72,2.09,11.35,11.35,0,0,1-5.13,2.2c-2.62.42-8.9,5.23-10.47,6s-9.11,4.82-10.26,5.13-3.45,2.83-4.29,3.67-4.92,3.45-7.12,4.92-5.23,6-5.23,6a30.07,30.07,0,0,1-1.68,4.15c-.75,1.81-.75,6.13-.44,8.75s2.57,9.56,4.81,12.62a35.71,35.71,0,0,0,9,8.26,38.85,38.85,0,0,0,6.94,3.06c1.88.62,8.25.75,10,.81a12.29,12.29,0,0,0,5.69-1.13c2.81-1.06,6.08-5.54,6.54-6s2.75-.75,3.46-.83,1.79.58,3.87.42,6.84,1.16,7.21,1.21a10.92,10.92,0,0,1,3.34,1.16c.41.46,2.5,1.54,3.83,2.46s3.46,2.75,5.75,4.54,3.83,5.42,4.13,5.88.83,1.25,0,2-1.46,3.24-2.21,5.12-1,8.38-.63,10.58,4.84,10.17,5.88,11.3,3.5,2.33,4.46,3.16.83.79,5.75,3.13,14,4.12,17.66,3.83,6.59-2.29,8.21-3.38,3-3.79,3.46-4.5,1.75-4.12,2-4.7,1.25-2.21,1.62-2.13,9.8-8.79,10.63-9.41,5.5-5.17,8.17-8,11.37-9.91,11.91-10.33,4.75-3.12,5.71-3.71,9.17-5.83,10.08-6.21,3.82-2,5.19-2.46,3.19.55,4.44.76S225.25,137.08,221.08,133.46ZM82.29,129.83c-.29.71-.46,3.79-2,5.84s-3.58,3.91-5,4.29-5.33,1.62-7.87,1.37a25.27,25.27,0,0,1-7.88-1.71,49.35,49.35,0,0,1-5.83-3.33,34.3,34.3,0,0,1-4.46-3.91,31.75,31.75,0,0,1-2.54-4.21c-.46-1.13-2-2.88-2.58-5.25S42.75,117.71,43,116a29.7,29.7,0,0,1,1-5.21c.54-1.25,2-4.58,2.91-5.21s3.05-3,3.84-3.37,3.54-2.29,4.79-2.67a5.39,5.39,0,0,1,4.25,0c1.58.8,3.71,2.54,4.33,2.84a40,40,0,0,1,5.17,3.16c1.62,1.25,3.58,1.3,4.71,3.8s2.62,2,3.54,4.2,2,2.92,2.25,3.67,1.79,2.71,2.58,5S82.58,129.12,82.29,129.83Zm75.21,45.09a12.25,12.25,0,0,0-1.33,2.75c-.09.25-.42,2.66-.92,3.08s-1.92,3-2.42,3.25-2.25,1.25-2.75,1.58a24.32,24.32,0,0,1-3.58,1.84c-.5.08-6,0-7.46-.67s-6.62-1.83-8-2.42-5.75-3.16-6.83-3.83-4.92-3.58-6-5.67a32.79,32.79,0,0,1-2.17-6.25,20.94,20.94,0,0,1-.67-6.33c.25-1.33,1.5-6.08,2.09-6.83s1.91-2.75,1.91-2.75a19.53,19.53,0,0,1,3.17-2.75c.83-.34,1.33-1.17,2-1.5a38.53,38.53,0,0,1,7-2,7,7,0,0,1,4.5.75c1.33.66,2.92,1.75,4.33,2.33s3.25,2.58,3.84,3.17,3.08,1.08,3.75,1.41,3.5,3.09,4.58,3.75a14.44,14.44,0,0,1,3.17,3.59c.58.91,3.08,5.66,3.08,7.08S158.17,174,157.5,174.92Z" transform="translate(-40.12 -71.12)"/></svg>
