<svg xmlns="http://www.w3.org/2000/svg" viewBox="0 0 768 945"><defs><style>.cls-1{opacity:0.4;}.cls-2{fill:#c3bdb2;}.cls-3{fill:#b7b0a3;}.cls-4{fill:#c5c2ca;}.cls-5{fill:#9e9990;}.cls-6{fill:#4e5275;}.cls-7{fill:#3b405a;}.cls-8{fill:#292c43;}.cls-9{fill:#e5df9e;}.cls-10{fill:#cccac4;}.cls-11{fill:#1d1d1b;}.cls-12{fill:#dfdee3;}</style></defs><title>noah</title><g id="Layer_23" data-name="Layer 23"><ellipse class="cls-1" cx="399.5" cy="783" rx="78.5" ry="40"/></g><g id="sok_v"><path class="cls-2" d="M407.06,367s37,109,21,218c-32,35-100,0-100,0s-50-164,12-212C366.06,357,407.06,367,407.06,367Z"/><path class="cls-3" d="M409.06,539q-1.5-3-3,0a4.85,4.85,0,0,0,1,6C408.06,546,410.06,541,409.06,539Z"/><path class="cls-3" d="M434.06,606s21,73-3,131c-12,13-17-8-17-8s8-66-12-95,9-41,18-37S428.06,600,434.06,606Z"/><circle class="cls-3" cx="437.81" cy="684.25" r="8.78"/><path class="cls-4" d="M433.56,731s-7.5,23-1.5,26,27,4,22,14c-3.16,6.32-18.89-1.19-26,0-6,1-14.23,1.16-17-3-2-3-.57-10.18,0-16,1.17-11.89,3-23,3-23S426.06,735,433.56,731Z"/><path class="cls-3" d="M370.06,634s-24,33-2,112c-2,10-10,13-14,9-16-17-37-66-30-143,41-35,46,22,46,22"/><circle class="cls-5" cx="344.34" cy="694.48" r="10.27"/><circle class="cls-3" cx="343.32" cy="690.73" r="10.27"/><path class="cls-4" d="M348.88,749.48s12,14.38,11.17,26.52c-1,15,9.12,17.31,20,23,7.15,3.74,11.22,6.6,14,7,7,1,12.38-9.05,10-15-2-5-19.19-9.19-23-13-5-5-7.46-11.36-9-17-3.16-11.52-4.29-16.78-4.29-16.78S357,752.16,348.88,749.48Z"/><path class="cls-4" d="M428.06,585a41.5,41.5,0,0,1,6,21c-4,3-27,8-32,28a49.4,49.4,0,0,1-32,0s-12.21-30-46-22c4-20,10-30,10-30S389.06,603,428.06,585Z"/><path class="cls-2" d="M453.06,517s2,8,0,12-10,16-8.5,18.5,10.5-2.5,13.5-14.5S453.06,517,453.06,517Z"/><path class="cls-2" d="M463.06,516s6,18.85,2,31c-2,6-7,9-13,9-10.82,0-2-8,.5-13a30.73,30.73,0,0,0,.5-26Z"/><path class="cls-6" d="M438.28,398.41c-14.56-11.31-19.54-18-24.7-13.82s-4.51,10.23-1.19,14C447.67,427,460,464.3,451.31,526.66c8.72,5.74,13.56,7.61,19,2.87C483.23,458.3,452.84,409.72,438.28,398.41Z"/><path class="cls-7" d="M406.06,379s83,15,37,207c-6,1-24-10-26-16S418.06,396,406.06,379Z"/><path class="cls-7" d="M365.06,384s24,144,8,184c-17,20-53,31-53,31s-42-178,0-236C366.06,373,365.06,384,365.06,384Z"/><path class="cls-2" d="M314,552.76s-.77,9,2.09,13,13.61,15.58,12.42,18.55-11.8-.88-17.13-13.35S314,552.76,314,552.76Z"/><path class="cls-2" d="M303,553.41s-3.27,21.46,3.23,33.9c3.21,6.15,9.14,8.52,15.64,7.48,11.71-1.88.77-9-2.8-14A33.69,33.69,0,0,1,314,552.76Z"/><path class="cls-8" d="M304.06,387s4-8,12-5,14,11,10,23-37,87-4,153c-9,9-23,9-23,9S252.06,505,304.06,387Z"/><path class="cls-9" d="M418,379.33s7,12.51-4.66,22.34-11.4.35-8.66-7.81S408.07,370.86,418,379.33Z"/><path class="cls-9" d="M387.06,404c-4-5-32.06-20.3-73-32-7-2-13.16,1-7,7a78,78,0,0,0,19,14c11,6,42,17,47,17S391.06,409,387.06,404Z"/><path class="cls-9" d="M393.61,403.42c5.92,1,10.9,2.11,12.58,6.64s-3.49,8.24-10.49,6.47S387.7,402.44,393.61,403.42Z"/><path class="cls-9" d="M386.39,412.67s8,7,4,12-11,8-13,16C374.39,433.67,373.39,418.67,386.39,412.67Z"/><path class="cls-9" d="M408.85,411.77s7.41,1.75,10.59,8.3.91,11,2.59,14.77-2.49-2.61-10.25-6.33S408.85,411.77,408.85,411.77Z"/><path class="cls-10" d="M482.56,215.5s-22-80-106-82-112,54-110,113,19,109,48,128,79,31,131-12S482.56,215.5,482.56,215.5Z"/><path d="M466.06,264A32.68,32.68,0,0,0,456,267.43a30.38,30.38,0,0,0-8.27,6.83,38.5,38.5,0,0,0-5.81,9.08,62.57,62.57,0,0,0-3.61,10.16,97.63,97.63,0,0,0-2.8,21.28,132.08,132.08,0,0,0,1.15,21.45l1.14-1.65-12.51,2.47,1.77,1.48a96.52,96.52,0,0,0-4.32-28.5,62,62,0,0,0-5.92-13.25,42.74,42.74,0,0,0-9.44-11.12,38.66,38.66,0,0,0-27.25-8.33c-9.62.54-18.89,3.33-27.55,7.17l6.76-2.21c2.29-.61,4.57-1.23,6.86-1.79a68.43,68.43,0,0,1,14-1.62,51.93,51.93,0,0,1,7,.37l3.41.66c.28.06.57.1.85.17l.83.26,1.65.51a34.32,34.32,0,0,1,11.92,6.68,41.5,41.5,0,0,1,8.68,10.63A62.79,62.79,0,0,1,420,310.91a88.36,88.36,0,0,1,3,13.64,98.72,98.72,0,0,1,1.07,13.92v1.84l1.77-.36,12.49-2.53,1.34-.27-.2-1.38a136,136,0,0,1-1.41-20.93A98.78,98.78,0,0,1,440.29,294a61.17,61.17,0,0,1,3.14-10,40.24,40.24,0,0,1,5.21-9,29.45,29.45,0,0,1,7.68-7A34.86,34.86,0,0,1,466.06,264Z"/><circle class="cls-11" cx="383.89" cy="318.33" r="6.17"/><ellipse class="cls-11" cx="463.73" cy="296.83" rx="2.33" ry="3.17"/><path class="cls-11" d="M434.56,350.5a9.68,9.68,0,0,0-3.1-.92,14.12,14.12,0,0,0-3-.07,13.87,13.87,0,0,0-3,.57,9.57,9.57,0,0,0-2.9,1.43,9.57,9.57,0,0,0,3.1.93,13.87,13.87,0,0,0,3,.07,14.12,14.12,0,0,0,3-.57A9.68,9.68,0,0,0,434.56,350.5Z"/><path class="cls-12" d="M483.06,214s-8.11-54.76-56.79-75-105.21-15-138.21,25c-37.52,56.79-19,120-19,120,14.2-18.25,24.34-26.37,48.68,0,0,0-12.17-38.54,26.37-35.5S449.59,271.83,483.06,214Z"/></g></svg>
