<svg xmlns="http://www.w3.org/2000/svg" viewBox="0 0 150 100"><defs><style>.cls-1{opacity:0;}.cls-2{opacity:0.45;}.cls-3{fill:#666970;}.cls-4{fill:#909499;}.cls-5{fill:#9fa2a8;}.cls-6{fill:#9fa1a8;}.cls-7{fill:#76787c;}.cls-8{fill:#232323;}.cls-9{fill:#dfdee3;}.cls-10{fill:#e5e09d;}</style></defs><title>noah_ulv</title><g id="ulv_ny_vector"><rect class="cls-1" width="150" height="100"/><ellipse class="cls-2" cx="79.22" cy="80.17" rx="28.65" ry="10.13"/><path class="cls-3" d="M64.51,67.35s.07,2.09.2,3.57-1,4-1.81,5.12-2.11,3.1-2.52,3.76-1.74,1.14-1.56,1.78a1.1,1.1,0,0,0,1.6.63A11,11,0,0,0,62,81.32a1.6,1.6,0,0,0,.67-1.13A1.73,1.73,0,0,1,63,78.78c.51-.76,1.89-2.79,2.22-3.2S68.34,70,68,68.19C67.79,67.49,64.51,67.35,64.51,67.35Z"/><path class="cls-3" d="M67.94,67.2s.45,1.82-.23,2.29-2.35,0-4.3-3-2.11-2.77-2.71-3.33a10,10,0,0,1-2.92-4.46c-.55-2.16,2.3-4.48,4.49-3.64s4.4,1.7,5.2,3.63S66.59,63.1,67.94,67.2Z"/><path class="cls-3" d="M99.84,61.72a22.39,22.39,0,0,1-1,4c-.4.68-1.29,1.18-1.5,2a14.64,14.64,0,0,1-1.57,3.64,11.41,11.41,0,0,1-1.33,2.32c-.48.34-1.29.2-1.45.9-.09.42-.08,1,.53,1s1.35.31,2-.05.8-1.46,1-2a31.93,31.93,0,0,1,3.11-5.17c1.24-.93,1.54-2.47,1.88-3.23a10.15,10.15,0,0,0,1.2-3.2C102.58,61.12,102,60.07,99.84,61.72Z"/><path class="cls-3" d="M98.12,46.22c-1-.16-4.06.16-5.57,2.1a5.61,5.61,0,0,0-1.29,5.16A9.08,9.08,0,0,0,95.16,59c.93.58,3.59,1.12,4.45,3.09s2.77.67,2.77.67a15.24,15.24,0,0,0,1.09-7.23,17.07,17.07,0,0,0-2.16-6.71A6.16,6.16,0,0,0,98.12,46.22Z"/><path class="cls-4" d="M103.41,42.1c1.76-.39,5.49.82,7.67,3.51,2.49,3.06,4,5,4.78,9.56.32,1.88-1,4.69-.48,6s1.15,4.49.1,5.54-1,3.44-1.82,4-1.72,2.77-2.67,3.06-.86-5.26-.58-5.65c.29-2.1-2.29-4.39-3-5.64S102,54.21,101,52C98.1,45.23,101.65,42.49,103.41,42.1Z"/><path class="cls-4" d="M114.48,50.83l0,0,0,0,.05.05.1.1.17.18.16.19.14.19c.1.12.19.25.28.37s.17.26.25.39a8.45,8.45,0,0,1,.78,1.6c0,.14.1.27.14.41l.12.42c0,.13.06.28.08.42l0,.2c0,.07,0,.14,0,.21s0,.27,0,.41,0,.27,0,.4a1.27,1.27,0,0,1,0,.2l0,.2c0,.13,0,.25-.05.38l-.24-.3-.11-.14-.13-.13-.26-.25-.27-.22-.14-.11-.14-.09c-.1-.06-.19-.13-.29-.18l-.29-.16-.3-.13a5.48,5.48,0,0,0-1.22-.36l-.3,0-.3,0h-.5s0,0,0,0h0Z"/><path class="cls-4" d="M112.1,72.26a2.2,2.2,0,0,0-.09.21l-.09.23c-.06.15-.11.31-.16.47-.1.32-.19.64-.26,1a6.83,6.83,0,0,0-.15,1,4.49,4.49,0,0,0,0,1,4.63,4.63,0,0,1-.51-1,7.57,7.57,0,0,1-.34-1,10,10,0,0,1-.21-1.09c0-.19-.06-.37-.08-.56s0-.19,0-.28a2.85,2.85,0,0,1,0-.31Z"/><path class="cls-4" d="M113.71,66.74a.49.49,0,0,1,.08.12.6.6,0,0,1,.06.11,1.86,1.86,0,0,1,.1.2,2.74,2.74,0,0,1,.15.4,2.91,2.91,0,0,1,.12.39,2.88,2.88,0,0,1,.09.4,5.88,5.88,0,0,1,.06,1.56c0,.13,0,.26-.05.38l0,.19-.05.18c0,.12,0,.24-.09.36l-.12.35c0,.06,0,.12,0,.17l-.08.17-.14.33-.34.62c0-.23.08-.46.11-.69l0-.34,0-.17c0-.06,0-.12,0-.17V71l0-.34,0-.16,0-.16a3,3,0,0,0-.07-.32,4.39,4.39,0,0,0-.46-1.16l-.16-.26c-.05-.08-.12-.15-.17-.23l-.19-.21-.1-.09,0,0s0,0,0,0Z"/><path class="cls-4" d="M112.8,71.4s0,0,0,0h0s0,0,0,0l0,.07c0,.06,0,.11-.07.17a1.9,1.9,0,0,0-.12.36,3.79,3.79,0,0,0-.15.76,3.66,3.66,0,0,0,0,.81l0,.21,0,.2,0,.11,0,.1.08.2-.17-.13-.09-.07-.09-.08-.17-.16-.15-.17a3.78,3.78,0,0,1-.53-.81,4.72,4.72,0,0,1-.36-.93c0-.16-.08-.33-.11-.5a2,2,0,0,1,0-.26.57.57,0,0,1,0-.13.22.22,0,0,1,0-.08V71Z"/><path class="cls-4" d="M113,49.52l.06,0,0,0,.1,0,.19.09.35.19.33.2.33.22a7.87,7.87,0,0,1,1.16,1,3.45,3.45,0,0,1,.26.28l.24.29.22.3.11.16.09.16.18.32.16.33.07.16.06.18.11.33-.22-.28-.1-.13-.12-.13-.24-.25-.26-.23-.13-.1-.14-.1c-.1-.07-.18-.14-.28-.2l-.28-.17c-.1-.06-.2-.1-.3-.15a6.52,6.52,0,0,0-1.22-.47l-.32-.08-.31-.07-.31,0-.15,0h-.13Z"/><path class="cls-4" d="M111.78,49.09H112l.19,0,.36.07.36.1.35.11a6.73,6.73,0,0,1,1.31.59,3.14,3.14,0,0,1,.31.18l.29.2.28.22.14.11.12.12.25.24.23.26a1.47,1.47,0,0,1,.1.13l.1.14.19.27-.27-.19-.14-.09-.14-.08-.28-.15-.3-.13a4.66,4.66,0,0,0-1.2-.33,6.31,6.31,0,0,0-1.22-.08l-.3,0-.3,0-.29,0L112,51h-.11Z"/><path class="cls-4" d="M115.21,61.29l0,0,0,0,0,.06a.75.75,0,0,1,.07.12,2.53,2.53,0,0,1,.13.22c.08.15.15.3.22.45.13.3.24.6.34.9A8.48,8.48,0,0,1,116.4,65a7,7,0,0,1-.11,1.78,7.22,7.22,0,0,1-.52,1.63,6.51,6.51,0,0,0-.2-1.61,5.68,5.68,0,0,0-.56-1.44,5.36,5.36,0,0,0-.85-1.19,5.78,5.78,0,0,0-.5-.49l-.26-.21-.13-.08-.07,0h0s0,0,0,0Z"/><path class="cls-4" d="M111.9,69.22h0l-.05,0-.1.08-.2.19-.18.2c-.06.08-.13.15-.18.23a4.39,4.39,0,0,0-.59,1,5.15,5.15,0,0,0-.33,1.18c0,.21,0,.42-.06.64a1.74,1.74,0,0,0,0,.32v.33l-.13-.31a2.85,2.85,0,0,1-.12-.31,4.45,4.45,0,0,1-.19-.65,5.3,5.3,0,0,1-.12-1.39,5.45,5.45,0,0,1,.22-1.43c0-.12.07-.24.11-.36s.09-.23.13-.35a3.7,3.7,0,0,1,.17-.35s.06-.11.09-.17l0-.1,0,0h0v0l0,0Z"/><path class="cls-4" d="M112.08,67.11l-.16.06-.16.08-.34.17a6,6,0,0,0-.64.38,7.05,7.05,0,0,0-.61.47,3.75,3.75,0,0,0-.51.6,3.42,3.42,0,0,1,.1-.83,4.88,4.88,0,0,1,.26-.82,8,8,0,0,1,.36-.79l.21-.38.12-.2c0-.06.07-.12.13-.2Z"/><path class="cls-5" d="M42.41,45.07c6-4.62,14-5.86,21.3-5.37s13.95.24,20,1.35,9.31,5,9.35,10.49-4.59,9.58-9.77,10.85S70.34,67.61,65.14,64.3,56.21,51.88,50.71,53.56,40.66,54,40,51A5.56,5.56,0,0,1,42.41,45.07Z"/><path class="cls-6" d="M62.29,56.51l.09-.42.1-.4c.07-.27.15-.54.22-.81.16-.53.33-1.06.52-1.59a12.17,12.17,0,0,1,.66-1.53,5.7,5.7,0,0,1,.45-.71,2.17,2.17,0,0,1,.6-.57,1.94,1.94,0,0,0-.39.68,5,5,0,0,0-.21.76,11.79,11.79,0,0,0-.18,1.57c0,.53,0,1.06,0,1.58l0,.79,0,.4c0,.13,0,.26,0,.38Z"/><path class="cls-6" d="M58.45,40.78c0-.06,0-.09,0-.14l0-.11c0-.08,0-.16,0-.23l.12-.44c.09-.29.19-.57.29-.84a9.65,9.65,0,0,1,.8-1.57,7.88,7.88,0,0,1,1.09-1.34,6.35,6.35,0,0,1,1.33-1,6.33,6.33,0,0,0-1,1.3,7.15,7.15,0,0,0-.59,1.44,8,8,0,0,0-.27,1.51,4.88,4.88,0,0,0,0,.76c0,.12,0,.25,0,.37s0,.12,0,.18v.08a.56.56,0,0,0,0,.07Z"/><path class="cls-4" d="M45.5,52H46l.48,0c.31,0,.62.08.92.13a9.38,9.38,0,0,1,1.76.51,7.16,7.16,0,0,1,1.57.84A6.06,6.06,0,0,1,52,54.62a6.27,6.27,0,0,0-1.54-.49A6.19,6.19,0,0,0,49,54a8.12,8.12,0,0,0-1.49.23l-.7.22-.33.13-.16.07-.07,0h0Z"/><path class="cls-4" d="M44.66,52.05h.54l.48,0a9.26,9.26,0,0,1,.92.13,9.36,9.36,0,0,1,1.76.5,8.11,8.11,0,0,1,1.57.84,6.1,6.1,0,0,1,1.26,1.16,5.9,5.9,0,0,0-1.54-.5,6.71,6.71,0,0,0-1.54-.09,8.13,8.13,0,0,0-1.49.24c-.24.06-.47.13-.7.21l-.33.13-.16.07-.07,0,0,0h0Z"/><path class="cls-4" d="M46.44,50.13h.19l.15,0,.28,0a4.37,4.37,0,0,1,.52.12,10.31,10.31,0,0,1,1,.29,10,10,0,0,1,1.81.85,8.07,8.07,0,0,1,1.52,1.17A6.15,6.15,0,0,1,53,54.07a5.26,5.26,0,0,0-1.62-.36,6,6,0,0,0-1.54.08,6.81,6.81,0,0,0-1.42.41l-.64.29-.29.17-.13.09-.05,0s0,0,0,0h0Z"/><path class="cls-4" d="M49.51,50.27h0l0,0,.06,0,.13.12a3.06,3.06,0,0,0,.29.21,3.63,3.63,0,0,0,.64.36,3.35,3.35,0,0,0,.72.22l.19,0h.59L52,51.4l-.09,0-.1,0-.2.06-.2.05a3.11,3.11,0,0,1-.86.09,4.28,4.28,0,0,1-.87-.09,3.54,3.54,0,0,1-.44-.11L49,51.41l-.11,0-.06,0h0s0,0,0,0Z"/><path class="cls-4" d="M47.57,48.68h.58a4.52,4.52,0,0,1,.53.06,6.67,6.67,0,0,1,1,.26,4.4,4.4,0,0,1,.89.46l.2.14.19.15.09.08.08.09.16.17L51.07,50,51,50l-.11,0-.22,0-.22,0a3.34,3.34,0,0,0-.84,0,4,4,0,0,0-.79.22l-.37.16-.17.09-.07,0,0,0,0,0h0Z"/><path class="cls-4" d="M47.52,49l0,0h0l.08,0,.13,0,.27,0a3.21,3.21,0,0,1,.53-.07,5.06,5.06,0,0,1,1,0,4.5,4.5,0,0,1,1,.22l.23.09.22.11.1.05.1.06.2.13h-.68l-.21,0a3.06,3.06,0,0,0-.81.25,3.77,3.77,0,0,0-.71.41l-.32.24-.14.13-.06.07,0,0h0Z"/><path class="cls-6" d="M61.45,40.54l0,0,0,0,0,0,.09-.08.18-.13.35-.26c.23-.15.46-.3.7-.44a14.08,14.08,0,0,1,1.44-.75,13.15,13.15,0,0,1,3-1,13.35,13.35,0,0,1,1.53-.2,12.85,12.85,0,0,1,1.52,0,12.51,12.51,0,0,1,2.9.55,11.68,11.68,0,0,0-2.8.4,10.47,10.47,0,0,0-1.3.45,9.73,9.73,0,0,0-1.21.6,11.21,11.21,0,0,0-3,2.49c-.14.16-.26.33-.38.49l-.17.24a.75.75,0,0,0-.07.12l0,.05v0h0s0,0,0,0Z"/><path class="cls-6" d="M80.2,58.18h.13l.1,0,.18,0,.33.11.61.26a9.58,9.58,0,0,1,1.15.6,10.09,10.09,0,0,1,2,1.53,10.2,10.2,0,0,1,.82.91,9.5,9.5,0,0,1,.68,1,9.83,9.83,0,0,1,.93,2.11,8.9,8.9,0,0,0-1.63-1.46,9.46,9.46,0,0,0-.91-.54,8.55,8.55,0,0,0-.94-.4,8.07,8.07,0,0,0-2.89-.48l-.46,0-.21,0L80,62h0Z"/><path class="cls-6" d="M82.25,58.35s0,0,0,0l0,0,0,0,.06.07a1.13,1.13,0,0,1,.1.13l.19.26c.12.17.23.34.34.52a8.83,8.83,0,0,1,.56,1,11,11,0,0,1,.78,2.19,8.77,8.77,0,0,1,.2,1.12,8.35,8.35,0,0,1,.06,1.11,7.83,7.83,0,0,1-.3,2.13,7.53,7.53,0,0,0-.63-1.93,8.92,8.92,0,0,0-.49-.85,6,6,0,0,0-.57-.76A8.45,8.45,0,0,0,81.3,62.2a9,9,0,0,0-.74-.52l-.38-.21L80,61.38l-.09,0h0Z"/><path class="cls-6" d="M58.6,41.18l0,0v0l0,0a.61.61,0,0,0,0-.06l.08-.12.07-.1.08-.1a3.51,3.51,0,0,1,.29-.36c.19-.24.39-.46.59-.67a15.43,15.43,0,0,1,1.27-1.17,13.69,13.69,0,0,1,2.8-1.79,12.09,12.09,0,0,1,1.5-.61,13.66,13.66,0,0,1,1.52-.41,12.32,12.32,0,0,1,3-.19A11.33,11.33,0,0,0,67.48,37a11,11,0,0,0-1,.93,11.35,11.35,0,0,0-.84,1,10.53,10.53,0,0,0-1.21,2.23,9.82,9.82,0,0,0-.38,1.16c0,.19-.09.38-.12.56a2.51,2.51,0,0,0,0,.27v.17h0Z"/><path class="cls-5" d="M71.1,46.13c4.62-5.26,11-6,17.43-7.36s16.37,2.84,20.27,6.47c2.73,2.54,3.34,5.59,2.18,7.82-1.81,3.47-5.12,3.67-8.47,2.4s-4.66-4-8-2.2S92,59.06,87.6,59,73.19,50.21,71.1,46.13Z"/><path class="cls-6" d="M78.53,44v-.48l0-.46a8.81,8.81,0,0,1,.11-.88,9,9,0,0,1,.46-1.71A6.76,6.76,0,0,1,80,38.94a5.81,5.81,0,0,1,.56-.65,4.7,4.7,0,0,1,.65-.53,5.08,5.08,0,0,0-.46.68,5.28,5.28,0,0,0-.33.73,5.78,5.78,0,0,0-.31,1.53,7.29,7.29,0,0,0,0,1.55q0,.38.12.75l.09.37a1.21,1.21,0,0,0,.05.18l0,.08a.49.49,0,0,0,0,.07Z"/><path class="cls-6" d="M77.16,43.52a.08.08,0,0,1,0-.05l0,0,0-.06a.54.54,0,0,0,0-.11l.12-.19.23-.36c.16-.23.32-.46.49-.67a13.94,13.94,0,0,1,1.07-1.22,13.6,13.6,0,0,1,2.45-2A12.85,12.85,0,0,1,83,38.1a13.07,13.07,0,0,1,1.42-.56,12.24,12.24,0,0,1,2.9-.54,11,11,0,0,0-2.47,1.4,9.94,9.94,0,0,0-1,.89,10.67,10.67,0,0,0-.91,1,11,11,0,0,0-1.39,2.22c-.18.39-.34.79-.48,1.19-.06.19-.12.39-.17.59a2.86,2.86,0,0,0-.07.28l0,.14v.1h0Z"/><path class="cls-7" d="M74.79,71.42a8.7,8.7,0,0,0-2.85,3.08c-.81,1.73-3.46,4.23-4.83,5.42S63.65,83,62.36,83.29c-1,.21-2.57.59-2.65,1.44s.31,1.18,1.17,1.41a5.5,5.5,0,0,0,2.69-.27,2.05,2.05,0,0,0,1.31-1.09,2.28,2.28,0,0,1,1.05-1.53c1-.68,3.55-2.5,4.14-2.83s7.19-4.73,7.63-7C77.75,72.43,74.79,71.42,74.79,71.42Z"/><path class="cls-7" d="M77.31,71.23s.92,2.25.06,2.83S74,74,71.62,70.21s-2.56-3.55-3.3-4.27a12.77,12.77,0,0,1-3.52-5.72c-.62-2.74,3-5.56,5.78-4.42s5.47,2.28,6.41,4.74S75.75,66,77.31,71.23Z"/><path class="cls-7" d="M105.36,64.4a29.09,29.09,0,0,1-2.59,4.67c-.72.72-2,1.05-2.52,2a16,16,0,0,1-3.13,4,5.28,5.28,0,0,1-2.83,1.68c-.7.26-1.65.73-1.5,1.27s0,1.27.78,1.28a11.06,11.06,0,0,0,3-.33c.52-.24.79-1.09,1.17-1.77a31.87,31.87,0,0,1,5.06-4.67c1.84-.75,2.72-2.56,3.38-3.39a10.71,10.71,0,0,0,2.22-3.32C108.64,64.8,108.5,63.05,105.36,64.4Z"/><path class="cls-7" d="M101.84,47.67c-1.23-.11-4.73.52-6.33,2.91S93.83,55,94.44,56.7a10.67,10.67,0,0,0,5,6.12c1.13.59,4.28,1,5.44,3.23s3.18.6,3.18.6,1.69-4.54.78-8.58a19.91,19.91,0,0,0-3.09-7.64C104.78,49.13,103.06,47.77,101.84,47.67Z"/><path class="cls-4" d="M44.43,45.48s3-1.41,4.1-.95c1.62.69,3.68.79,5.38,1.9,1,.63,2.14.43,1.71.72a6.19,6.19,0,0,1-3,1.2c-1.8.28-2.2,1.15-3.62.47s-3.25-1.08-3.8-1.36S44.43,45.48,44.43,45.48Z"/><path class="cls-4" d="M43.06,45.64s-2.27.87-1.44,0c1.25-1.25-.68-.7,1.21-2.2,1.07-.84.93-1.4,1.3-1.3s1.23.19,1.41,1.06,1.43.66.22,1.78-1.06.49-1.55.93S43.06,45.64,43.06,45.64Z"/><path class="cls-4" d="M34.83,60.27a1.25,1.25,0,0,0,1.05,1,11.2,11.2,0,0,0,4,.05,10.34,10.34,0,0,0,4.73-2.78,12.13,12.13,0,0,1,4.65-3.08c.64-.32-3.22-.34-4,.09S34.83,60.27,34.83,60.27Z"/><path class="cls-8" d="M46,55.7a40.81,40.81,0,0,1-4.69,3.85,7.87,7.87,0,0,1-5.87,1.27c-.74-.16-1.09-1,.79-2.26,1.72-1.11,2.27-4.69,2.73-4.69S44.74,52.09,46,55.7Z"/><path class="cls-9" d="M37.88,58.19a3.89,3.89,0,0,1-.79-.92,1.16,1.16,0,0,1-.25-.59.83.83,0,0,1,.29-.64.06.06,0,0,1,.08,0,2.5,2.5,0,0,1,.37.49,1.43,1.43,0,0,1,.07.52,10.6,10.6,0,0,0,.29,1.1,0,0,0,0,1,0,.05Z"/><path class="cls-9" d="M36.65,57.5a4,4,0,0,1-.38-1.15,1,1,0,0,1,0-.63.87.87,0,0,1,.51-.5.07.07,0,0,1,.07,0,2.29,2.29,0,0,1,.16.59,1.64,1.64,0,0,1-.12.51,7.79,7.79,0,0,0-.14,1.12,0,0,0,0,1,0,0Z"/><path class="cls-9" d="M36.38,57.91a4.34,4.34,0,0,1-.58-1,1,1,0,0,1-.17-.58.93.93,0,0,1,.3-.61.06.06,0,0,1,.08,0,1,1,0,0,1,.37,1.06c0,.37,0,.75.07,1.13,0,0,0,0,0,0Z"/><path class="cls-9" d="M35.53,57.85a5.41,5.41,0,0,1-.44-1.09,1.19,1.19,0,0,1-.12-.58,1,1,0,0,1,.32-.58.06.06,0,0,1,.08,0,1.21,1.21,0,0,1,.34.54,1.46,1.46,0,0,1,0,.55l-.09,1.14a0,0,0,0,1,0,0Z"/><path class="cls-9" d="M35.76,57.36a6.16,6.16,0,0,1-.44-1.1,1.13,1.13,0,0,1-.12-.57,1,1,0,0,1,.33-.59,0,0,0,0,1,.07,0,1.23,1.23,0,0,1,.35.55,1.3,1.3,0,0,1,0,.55l-.08,1.14a0,0,0,0,1,0,0Z"/><path class="cls-9" d="M34.74,57.56a3.53,3.53,0,0,1-.44-1,.87.87,0,0,1-.1-.52.85.85,0,0,1,.36-.51.06.06,0,0,1,.07,0,1,1,0,0,1,.32.49,1.13,1.13,0,0,1-.05.48c0,.32-.08.65-.09,1a0,0,0,0,1,0,0Z"/><path class="cls-9" d="M35,57.29a3.76,3.76,0,0,1-.43-1,.9.9,0,0,1-.1-.53.87.87,0,0,1,.36-.5,0,0,0,0,1,.07,0,1.08,1.08,0,0,1,.32.49c.05.15,0,.31,0,.47,0,.32-.08.66-.09,1a0,0,0,0,1,0,0Z"/><path class="cls-4" d="M31,56.5c-.75-.55-1.48-2.83.06-3.33s5.24-3,6.37-5.72,6.92-4.6,8.67-4a8,8,0,0,1,3.7,2.13c1,1,.66,5.32.72,5.58a6.16,6.16,0,0,1,.23,2.38,3.45,3.45,0,0,1-1,1.58,5.07,5.07,0,0,1-3,1.19c-2.51-.21-3.84-1.94-5.15-.88a5.85,5.85,0,0,1-3.9,1.54,10.82,10.82,0,0,1-3.59-.28C33,56.41,31.91,57.15,31,56.5Z"/><path class="cls-8" d="M31,54c-.32-.18-.6.24-.23.78s.14.93.49,1.09,0-.72.67-.66c.45,0,.41-.63.31-.73C31.88,54.07,31.59,54.33,31,54Z"/><path class="cls-8" d="M42.23,51.42a2.58,2.58,0,0,1,1.12-1.19,4.55,4.55,0,0,1,1.5-.27,1.8,1.8,0,0,1-.44,1.11A2,2,0,0,1,42.23,51.42Z"/><circle class="cls-10" cx="43.36" cy="50.64" r="0.56"/><path class="cls-4" d="M42.23,51.42a2.58,2.58,0,0,1,1.12-1.19,4.55,4.55,0,0,1,1.5-.27s-1.6-.59-2-.15S41.88,50.88,42.23,51.42Z"/><path class="cls-8" d="M42,50.57a1.44,1.44,0,0,1,.25-.55,1.39,1.39,0,0,1,.46-.41,1.28,1.28,0,0,1,.59-.19c.1,0,.21,0,.31,0l.15,0,.14,0h0l-.29,0c-.1,0-.2,0-.3,0a1.59,1.59,0,0,0-.55.2,1.47,1.47,0,0,0-.45.38,1.85,1.85,0,0,0-.3.51Z"/><path class="cls-9" d="M37.45,59.75a1.85,1.85,0,0,1,.21.45c0,.08.09.16.05.24a.43.43,0,0,1-.25.22h-.05a.64.64,0,0,1-.2-.24c0-.06,0-.13,0-.2l.14-.45s0,0,0,0Z"/><path class="cls-9" d="M38.36,59.25a2.68,2.68,0,0,1,.24.67.65.65,0,0,1,0,.36.62.62,0,0,1-.27.32s0,0-.05,0a.81.81,0,0,1-.18-.34c0-.11,0-.21.05-.32l.12-.67,0,0Z"/><path class="cls-9" d="M36.7,58.06c0,.21.08.41.12.6s.09.19.06.28a.67.67,0,0,1-.17.32,0,0,0,0,1-.05,0,.46.46,0,0,1-.27-.28.47.47,0,0,1,0-.33,2.25,2.25,0,0,1,.23-.61,0,0,0,0,1,0,0Z"/><path class="cls-9" d="M36.8,59.84a4.59,4.59,0,0,1,.15.44c0,.08.09.14.06.21a.69.69,0,0,1-.19.24h0a.44.44,0,0,1-.26-.21c0-.08,0-.17,0-.24a2.37,2.37,0,0,1,.2-.46s0,0,0,0S36.8,59.83,36.8,59.84Z"/><path class="cls-9" d="M36.18,59.94q.06.21.12.39c0,.06.09.11.06.16a.91.91,0,0,1-.17.22l0,0a.35.35,0,0,1-.28-.16c0-.08,0-.17,0-.25a1.1,1.1,0,0,1,.24-.4,0,0,0,0,1,0,0S36.18,59.93,36.18,59.94Z"/><path class="cls-9" d="M35.71,59.91c0,.13.06.25.09.35s.07.1.05.15a1.29,1.29,0,0,1-.13.19l0,0a.28.28,0,0,1-.23-.15.3.3,0,0,1,0-.21.89.89,0,0,1,.19-.36h0Z"/><path class="cls-9" d="M35.4,59.72c0,.13.08.24.12.35s.07.09.06.14a1,1,0,0,1-.12.2s0,0,0,0a.29.29,0,0,1-.24-.13.26.26,0,0,1,0-.21,1.06,1.06,0,0,1,.16-.38h0Z"/><path class="cls-9" d="M35.53,59.44a1.2,1.2,0,0,0,.07.3s.06.08,0,.12a1,1,0,0,1-.14.17l0,0a.29.29,0,0,1-.23-.13.24.24,0,0,1,0-.2.71.71,0,0,1,.21-.3s0,0,0,0Z"/><path class="cls-9" d="M35.85,59.1a1.49,1.49,0,0,0,.06.34c0,.05.07.09.05.13a.91.91,0,0,1-.13.19,0,0,0,0,1,0,0,.3.3,0,0,1-.23-.14c0-.07,0-.15,0-.22a.79.79,0,0,1,.23-.33,0,0,0,0,1,0,0Z"/><path class="cls-9" d="M36.2,58.82a3.21,3.21,0,0,0,.08.36s.06.1,0,.15a.62.62,0,0,1-.15.19h0a.3.3,0,0,1-.22-.16.26.26,0,0,1,0-.21,1.07,1.07,0,0,1,.2-.36h0S36.2,58.81,36.2,58.82Z"/></g></svg>
